<svg xmlns="http://www.w3.org/2000/svg" viewBox="0 0 379.06 74.39"><g id="Layer_2" data-name="Layer 2"><g id="Layer_1-2" data-name="Layer 1"><path d="M0,4.58.24,0H33.87l-.78,13.15H26.4l-.74-8.06H16V24.38h3.9l1.27-4.17h4.41V33.74H21.18l-1.29-4.27h-4V50h10l1.11-8.69h7c.23,4.59.45,9.11.68,13.87H.57V50.5l4.66-1.18c.06-.94.19-1.93.19-2.93,0-12.35-.09-24.69.08-37,0-3.06-.73-4.57-3.94-4.32A5.3,5.3,0,0,1,0,4.58Z"/><path d="M157.36,22.49l-4.07-.93v-4l11-1.52,1.41,3.27c2-1.06,3.86-2.4,5.89-3,6.89-1.89,12.41,1.31,14.37,8.3a40.85,40.85,0,0,1,.39,20.19c-2,8.71-8,12.43-16.77,10.78-.78-.14-1.54-.37-2.85-.69V69.17l3.66.93c.9,3.17,0,4.46-3.44,4.28-4.36-.23-8.73-.06-13-.06-.55-3.94-.55-3.94,3.4-5.32Zm9.41,14.29c0,3,.12,6,0,9-.13,2.51.26,4.21,3.28,4.45,4.33.34,6.78-.51,7-3.56.45-6.18.4-12.39.45-18.59a8,8,0,0,0-.89-2.95c-1.22-2.9-3.67-3.29-6.36-2.8s-3.51,2.26-3.46,4.78C166.83,30.32,166.77,33.55,166.77,36.78Z"/><path d="M247.3,51.06c3.58.14,4.08-1.63,4-4.39-.18-7.83-.06-15.66-.06-23.71l-4.1-.79V18l10.56-1.57L259,19c2.79-1,5.39-2.44,8.14-2.86,7.13-1.08,11.88,3.14,12,10.37.09,7.83,0,15.67,0,23.61l4,1.24-.27,3.83H269.77V50.4c0-7.26.09-14.53-.06-21.8-.08-4.33-2-6-5.65-5.56-2.33.28-3.54,1.48-3.54,3.85,0,7.15-.15,14.3.14,21.44,0,1.2,2,2.33,3.06,3.49l.81-.46c-.07,1.21-.13,2.42-.21,3.82H247.5C247.44,53.93,247.38,52.73,247.3,51.06Z"/><path d="M69.32,50.22l3.64,1v4H59.83V48.67c0-6.8.05-13.61,0-20.42,0-3.94-2-5.65-5.59-5.23-2.16.26-3.4,1.29-3.4,3.56,0,7.27-.13,14.54.13,21.81,0,1.13,1.83,2.2,2.81,3.3l.91-.45-.24,3.89H37.85c-1.54-3.57,1-4.37,3.53-5V22.88l-4.06-.7c-1.08-3.09-.37-4.63,3.09-4.71A62.41,62.41,0,0,0,48,16.4L49.12,19c2.86-1,5.45-2.43,8.18-2.85,7.11-1.09,11.91,3.16,12,10.36C69.39,34.32,69.32,42.16,69.32,50.22Z"/><path d="M338.27,22l-4.17-.86V17.49c3.75-.43,7.39-.93,11-1.17a2.8,2.8,0,0,1,2.08,1.55,10.18,10.18,0,0,1,.53,3.71c0,8.18.11,16.37,0,24.56-.05,2.8,0,5.14,3.88,4.92-.14,1.53-.24,2.74-.35,3.92-7.35,1.31-10.53.72-11.77-1.56-3.21.84-6.22,2.19-9.28,2.33-7.24.31-11.06-3.67-11.12-11s0-15,0-22.63l-4.3-1V17.5c3.66-.42,7.3-1,11-1.17a2.94,2.94,0,0,1,2.2,1.81,48.66,48.66,0,0,1,.51,7.54c.06,6.11-.05,12.22.05,18.33.06,4.57,2.95,6.89,7,5.47,1.15-.41,2.67-1.95,2.7-3C338.37,38.31,338.27,30.15,338.27,22Z"/><path d="M294.53,38.33c-.5,10.34,5.22,13.74,16.37,9.92l1.64,3.5c-10.49,8.46-23.91,4.25-27.32-8.37a26.7,26.7,0,0,1,1.85-19.82c2.91-5.63,7.79-8,14-7.66s9.6,3.94,11.54,9.4a7.1,7.1,0,0,1,.52,1.64c.29,3.18,1.48,6.69.54,9.48-1.36,4-5.59,1.46-8.52,1.81C301.65,38.65,298.05,38.33,294.53,38.33Zm11.63-4.95c-1.12-3.77-1.65-7-3-9.75-1.46-3-5.8-3-6.91-.13-1.19,3.09-1.67,6.46-2.51,9.88Z"/><path d="M133,38.33c.25,10.64,4.35,13.06,16.71,10.15.28.57.61,1.17.86,1.79s.33,1.08.48,1.58C140.94,60,127.55,56.15,124,44a27.76,27.76,0,0,1,1.07-19.29,14.25,14.25,0,0,1,14.35-8.87c6.25.4,10.09,3.71,12.14,10.51.14.44.3.88.4,1.32,2.23,9.49,1.6,10.37-7.94,10.62C140.34,38.41,136.65,38.33,133,38.33Zm-.67-4.88c3.77,0,6.86.1,9.93-.09.61,0,1.72-1.31,1.63-1.86a26.29,26.29,0,0,0-1.94-7.56,5.21,5.21,0,0,0-4.11-2.21c-1.17,0-2.87,1.52-3.33,2.75A70.61,70.61,0,0,0,132.29,33.45Z"/><path d="M226.5,38.32c.24,10.61,5.24,13.56,16.31,10.14,2.43,3.38,2.41,3.81-1.24,5.46-9.62,4.37-21.27,2.3-24.34-11.35a27.61,27.61,0,0,1,1.49-17.94c2.76-6.05,8-9.2,14.38-8.75,6.12.42,9.89,3.64,12,10.24.21.66.43,1.32.58,2,2,9.15,1.37,10-7.81,10.2C234.17,38.39,230.48,38.32,226.5,38.32Zm-.56-5.08h12.25c-1-3.54-1.46-6.6-2.73-9.3-.54-1.18-2.69-2.24-4.09-2.2A4.73,4.73,0,0,0,228,24.46,68.35,68.35,0,0,0,225.94,33.24Z"/><path d="M113.52,51.25c.93,3.28-.24,4.35-3.37,4.2-4.37-.2-8.76-.05-13.23-.05-.27-2.16-1-3.95,1.8-4.69a3.24,3.24,0,0,0,1.54-2.53c.12-7.73.19-15.46-.07-23.19,0-1.17-1.83-2.28-3.24-3.18-1.28-2.42-1.12-4.27,2.59-4.33a66,66,0,0,0,7.91-1.06l1.15,2.64c3.06-.89,6-2,9-2.57,3.48-.67,4.4.37,4,3.84-.25,2.52-.53,5-.83,7.78h-6.3c-.34-1.89-.63-3.55-.92-5.2-2.94-.05-3.93,1.23-3.85,4.05q.27,9.51,0,19C109.69,49,109.91,51.3,113.52,51.25Z"/><path d="M202.2,19c3.31-.88,6.48-1.87,9.72-2.55,2.43-.51,3.76.58,3.42,3.25s-.6,5.49-.93,8.44h-6.29c-.33-1.87-.62-3.52-.91-5.2-2.72,0-3.88.95-3.81,3.71.18,6.45.17,12.91,0,19.36-.07,2.9,0,5.31,4,5.28l-.22,3.85H190.49c-.28-2-.9-4,2.14-4.44.48-.08,1.15-1.16,1.16-1.78.07-8.62.05-17.25.05-26l-3.74-.64c-.82-2.63-1-4.6,2.83-4.71A76.67,76.67,0,0,0,201,16.42Z"/><path d="M365.84,18.87c3.59-.9,6.78-1.84,10-2.47,2.09-.4,3.39.66,3.16,2.93-.28,2.85-.67,5.69-1,8.78h-6.23c-.35-1.86-.66-3.52-1-5.21-2.86-.07-3.66,1.25-3.6,3.81.14,6.57.12,13.15,0,19.72-.05,2.63,0,4.94,3.57,4.81v3.88H353.83c.11-1.29.2-2.5.31-3.88,3-.12,3.48-1.8,3.42-4.37-.16-7.93-.06-15.87-.06-23.95l-3.87-.74V18l10.75-1.56Z"/><path d="M77.08,22.85l-4.11-1v-5c4.81,1.3,5.63-1.88,6.44-5.32,1-4.28,4.54-1.48,7.13-2.68v7.93h6.78l-.3,5-6.34,1V43.3c0,6.59,0,6.59,6.56,7.07,1.23,4.44.94,4.9-3.61,5.36a31,31,0,0,1-3.47.12c-6,0-9-2.8-9.06-8.86C77,39,77.08,31.08,77.08,22.85Z"/><path d="M378.79,53.5c-1.2,1-1.93,2-2.57,2a2.58,2.58,0,0,1-1.85-1.74A2.56,2.56,0,0,1,376,51.8C376.69,51.7,377.51,52.66,378.79,53.5Z"/></g></g></svg>