<svg xmlns="http://www.w3.org/2000/svg" viewBox="0 0 294.7 77.09"><g id="Layer_2" data-name="Layer 2"><g id="Layer_1-2" data-name="Layer 1"><path d="M167.59,24.55c1.31-.54,2.43-1.13,3.61-1.48,5.67-1.68,11.32-2.1,16.78.74,4.86,2.52,8,6.6,10,11.58a31.3,31.3,0,0,1,2,11.37,34.25,34.25,0,0,1-2.64,14.61c-3.54,8.2-9.89,13-18.51,15-3.45.79-7,.66-10.46.67a75.83,75.83,0,0,1-13.26-1.65c-.87-.16-1.74-.4-2.62-.54-.5-.08-.63-.3-.62-.79.07-4.08.15-8.16.16-12.24q.06-19.28.06-38.57c0-3.27-.12-6.55-.38-9.82a14.77,14.77,0,0,0-1.14-3.87,3.77,3.77,0,0,0-3-2.21c-.67-.15-1.34-.34-2-.48a.93.93,0,0,1-.81-1c-.05-1.56-.07-1.55,1.45-1.84L164.68.45c.81-.15,1.63-.26,2.43-.43.43-.09.59.11.61.48s0,.89,0,1.33q-.06,10.85-.11,21.67C167.59,23.8,167.59,24.11,167.59,24.55Zm0,25.86h.07c0,4.32,0,8.65,0,13,0,2.74.16,5.48.24,8.22,0,.48.14.91.69,1,3,.45,5.78.12,8.1-2.08A15.67,15.67,0,0,0,180,65.93a35.41,35.41,0,0,0,3.44-14c.22-4.85.27-9.72-1.29-14.43a17.26,17.26,0,0,0-3.63-6.69,8,8,0,0,0-4.73-2.71,11.62,11.62,0,0,0-5.16.45c-1,.32-1,.3-1,1.32Q167.63,40.15,167.64,50.41Z"/><path d="M27.34,40.86c0,1.92-.05,3.68,0,5.43.2,5.21.39,10.42.68,15.63a16.65,16.65,0,0,0,1.56,6.45,5.43,5.43,0,0,0,4.18,3.18c1.39.23,2.76.51,4.15.75a.83.83,0,0,1,.81.88c0,.62,0,1.23,0,1.85s-.29.67-.78.67c-2.21,0-4.42,0-6.63,0l-30.18,0c-1,0-1.07,0-1.12-1.09-.09-2.09,0-2.17,2-2.59.72-.15,1.44-.3,2.16-.43a6.13,6.13,0,0,0,4.91-4.49,29.46,29.46,0,0,0,1.19-8c.55-10.74.45-21.49.33-32.23,0-3.78-.22-7.57-.49-11.35a27,27,0,0,0-.93-5.11,6.58,6.58,0,0,0-6.15-5.1c-1-.11-1.93-.26-3-.39V1.46a11.34,11.34,0,0,1,1.24-.12q17.73,0,35.48,0L59,1.34c1,0,1,0,1,1q.18,8,.34,15.91c0,1.29,0,2.58,0,3.88a.67.67,0,0,1-.3.54c-.8.28-1.61.5-2.43.72a1.06,1.06,0,0,1-1.38-.71c-.45-1.14-.89-2.28-1.37-3.41a23.85,23.85,0,0,0-5-8,12.61,12.61,0,0,0-8.75-3.94c-4.26-.1-8.52-.1-12.79-.14a2.93,2.93,0,0,0-.42,0c-.51,9.69-.63,19.38-.61,29.11,1.41,0,2.77,0,4.12,0s2.85-.13,4.28-.26a6.93,6.93,0,0,0,5.59-3.85,19.94,19.94,0,0,0,1.89-5.47c.12-.52.34-.7.85-.69.9,0,1.81,0,2.75,0V51.34c-1.09,0-2.15,0-3.2,0-.13,0-.29-.33-.36-.53-.56-1.69-1.09-3.39-1.68-5.06a5.86,5.86,0,0,0-.76-1.33,6.08,6.08,0,0,0-4.88-3C33.11,41.25,30.29,41.05,27.34,40.86Z"/><path d="M78,77.08a25.08,25.08,0,0,1-11.58-2.27,22.61,22.61,0,0,1-12-13.59,36.62,36.62,0,0,1-1.78-15,28.44,28.44,0,0,1,3.51-12.28A24.38,24.38,0,0,1,74.47,21.37,29,29,0,0,1,90,23.06c6.65,2.73,10.72,7.83,12.95,14.52a38,38,0,0,1,1.52,14.79,27.66,27.66,0,0,1-4.92,14.21A24.16,24.16,0,0,1,82.45,76.86C81,77.07,79.47,77,78,77.08ZM69,48.27A52.48,52.48,0,0,0,70.47,63a19.56,19.56,0,0,0,3.4,7.41,6.23,6.23,0,0,0,6.31,2.49,6.91,6.91,0,0,0,4.3-3.06,18.19,18.19,0,0,0,2.85-7.77,76.85,76.85,0,0,0,.82-15.53,47.73,47.73,0,0,0-1.61-12,15.29,15.29,0,0,0-4.43-7.71,6.47,6.47,0,0,0-2.39-1.38c-2.91-.83-5.49.31-7.19,3a22.16,22.16,0,0,0-2.74,8A66.26,66.26,0,0,0,69,48.27Z"/><path d="M220.06,47c0,5.14.67,10,3.43,14.29,2.92,4.5,7.06,7.23,12.6,7.48a18.42,18.42,0,0,0,8.66-1.22c1.25-.57,2.42-1.32,3.63-2,.86-.47,1-.43,1.63.3.81,1,.85,1.39,0,2.39a24.59,24.59,0,0,1-11.42,7.61A29.39,29.39,0,0,1,227.41,77c-9.35-.61-18.32-6.56-21.95-17.47a33.93,33.93,0,0,1-1.41-10.34,30.08,30.08,0,0,1,3.57-15A23.91,23.91,0,0,1,225.7,21.4a24.79,24.79,0,0,1,11.39.6c5.74,1.75,9.58,5.61,11.89,11a32.29,32.29,0,0,1,2.45,13.17c0,.55-.16.71-.72.71q-14.84,0-29.66.06Zm15.32-4.87a1,1,0,0,0,.06-.3c-.21-2.55-.35-5.11-.68-7.65a16.28,16.28,0,0,0-2.11-6.56c-1.72-2.78-4.62-3.2-7.09-1A10.8,10.8,0,0,0,223,30a32.12,32.12,0,0,0-2.81,10.8c0,.52,0,1-.08,1.64Z"/><path d="M254.36,66c0-2.43,0-4.86,0-7.29,0-.41.09-.68.52-.79.13,0,.24-.1.37-.14,1.62-.54,1.94-.4,2.57,1.14a30.92,30.92,0,0,0,4.68,8.35A11.61,11.61,0,0,0,274,71.39a7.53,7.53,0,0,0,6-7.14A6.68,6.68,0,0,0,276.88,58a41.07,41.07,0,0,0-8-3.88,36.31,36.31,0,0,1-7.22-3.46c-4.63-3.2-6.51-7.69-6.33-13.22.24-7.3,5.82-13.44,13-15.41a31.28,31.28,0,0,1,10.81-.92,43.19,43.19,0,0,1,10.62,2c1.9.64,1.89.64,1.93,2.65.09,3.86.17,7.71.28,11.57a.78.78,0,0,1-.62.9c-2,.72-2.09.71-2.86-1.3A27.92,27.92,0,0,0,285,30.06a10.46,10.46,0,0,0-9.12-4.55,6.79,6.79,0,0,0-6.3,5.9,7.12,7.12,0,0,0,3.22,7.38,42.77,42.77,0,0,0,8.22,4.27,41.2,41.2,0,0,1,7.88,4.09,13,13,0,0,1,5.76,11,16.85,16.85,0,0,1-12.25,17.59,20.83,20.83,0,0,1-7.21,1.24c-2.32,0-4.65.14-7,0a47.54,47.54,0,0,1-12.85-2.68.94.94,0,0,1-.73-1c0-2.42,0-4.85,0-7.28Z"/><path d="M136.39,75.7H106c-1.55,0-1.56,0-1.53-1.56s0-1.61,1.64-1.93l1-.21c2.48-.52,4-1.95,4.18-4.47.3-3.19.51-6.4.55-9.6q.09-9.86-.06-19.72a36.1,36.1,0,0,0-.62-5.77,4.18,4.18,0,0,0-3.81-3.72c-.77-.1-1.53-.32-2.3-.45a.62.62,0,0,1-.57-.69V27.5c-.1-1.76-.08-1.82,1.63-2.17q10.1-2,20.19-4c.45-.09.91-.11,1.46-.18-.13,3.67-.25,7.25-.38,10.82l.11,0c.14-.23.28-.46.41-.7a21.67,21.67,0,0,1,6.25-7.56,14,14,0,0,1,12.44-2.22l.38.13c1.59.58,1.76.86,1.18,2.42-1.54,4.15-3.12,8.28-4.7,12.42-.31.81-.33.79-1.15.48a50.3,50.3,0,0,0-5.39-2,11.29,11.29,0,0,0-7.81,1,2.8,2.8,0,0,0-1.76,2.7c-.24,8.27-.26,16.54.22,24.8a32.72,32.72,0,0,0,.76,5.21,4,4,0,0,0,3.76,3.27c1.26.13,2.52.3,3.78.42.36,0,.54.14.53.51Z"/></g></g></svg>