<svg xmlns="http://www.w3.org/2000/svg" viewBox="0 0 387.94 58.56"><g id="Layer_2" data-name="Layer 2"><g id="Layer_1-2" data-name="Layer 1"><path d="M58.11,29.7A29.06,29.06,0,1,1,29.21.58,28.93,28.93,0,0,1,58.11,29.7Z"/><path d="M145.6,56.92,126.32,12.11l-.41,0c0,.68-.12,1.36-.12,2,0,11.59,0,23.17,0,34.75,0,3.38.09,6.55,4.25,7.71h-11.1C123,55.41,123,52.21,123,48.86q-.08-19.23,0-38.46c0-3.39,0-6.62-4.74-7.24l.46-.65c3.57,0,7.19.38,10.7-.09,5.16-.7,7.66,1.13,9.47,6.12,3.33,9.13,7.57,17.94,11.43,26.88.32.73.68,1.43,1.23,2.58,2-4.7,3.91-9,5.76-13.26C160.24,18,163.18,11.26,166,4.47a2.77,2.77,0,0,1,3.12-2c4.6.12,9.21,0,14.5,0-.75.56-1,.8-1.18.86-2.84.72-3.67,2.71-3.66,5.41,0,13.56.07,27.13,0,40.69,0,3.35.28,6.23,4.27,7.23H162.74c4.17-1.06,4.22-4.18,4.19-7.59-.09-11.91,0-23.83,0-35.74V11l-.49-.1q-9.93,23-19.85,46Z"/><path d="M387.94,56.78H371.5c-.05-1-.13-1.83-.13-2.71,0-8.43,0-16.87,0-25.31a17.66,17.66,0,0,0-.5-4.41,4.58,4.58,0,0,0-5.6-3.28,5,5,0,0,0-4,5.14c.08,8,.07,16,.09,24.06,0,4.06.06,4.17,3.34,6.46h-15c0-.89-.12-1.76-.12-2.64,0-8.35,0-16.7,0-25.06a18,18,0,0,0-.76-5.1A4.4,4.4,0,0,0,343.66,21a4.57,4.57,0,0,0-4.07,4.56c0,8.84,0,17.69,0,26.54,0,2.23,1,3.57,3,4.56H327.76V54c0-9,0-18,0-27,0-4.28-.5-4.93-5.05-6.58l16.82-4.63V22c3-4.62,6.62-6.53,11.4-6.26a10.42,10.42,0,0,1,9.9,7.12c2.14-4.32,5.39-6.7,10-7.08,7.32-.61,12.14,3.63,12.25,11s0,14.89,0,22.33C383.09,54,383.24,54.2,387.94,56.78Z"/><path d="M90.06,28.33c-.12,8.7-1.24,15.75-5.2,22a18.21,18.21,0,0,1-3.7,4.27c-3.79,3.14-8.3,2.89-11.88-.49C64.86,50,62.92,44.56,61.89,38.8,60.12,29,60.66,19.34,65.34,10.32a20.28,20.28,0,0,1,4.57-5.77c3.6-3.16,8.11-2.91,11.68.32,4.8,4.34,6.62,10.16,7.72,16.24A72.19,72.19,0,0,1,90.06,28.33Z"/><path d="M261.42,56.76h-16V51.32c-.67.77-1,1.08-1.23,1.42a12.54,12.54,0,0,1-19.59,1.2c-8.18-8.94-6.3-27.77,3.52-34.84,5.22-3.76,10.9-4.39,17.11-2.07,0-2.58.07-5,0-7.34-.08-2.14-1.38-3.29-3.41-3.63A7.37,7.37,0,0,1,239,5.33L257.18,0V3c0,15.55.05,31.1,0,46.66C257.12,53,257.71,55.59,261.42,56.76ZM245.31,35c0-4.3-.05-8.6,0-12.89a3.67,3.67,0,0,0-2.64-3.74c-3.15-1.25-6.6.44-8.16,4.51a31.64,31.64,0,0,0-.07,23.68,10.86,10.86,0,0,0,3.91,4.55c2.61,1.78,7.43,0,7-4.22C245,42.94,245.31,38.94,245.31,35Z"/><path d="M280.17,20.55,297,15.78v5.34c0,7.61,0,15.22,0,22.83a16.83,16.83,0,0,0,.31,3.69c.72,3.09,2.92,4.48,6.09,4,2.74-.38,4.09-2.08,4.09-5.17V26.92c0-4.29-.16-4.55-4-6.57l15.84-4.58V42.1c0,2.15.06,4.31,0,6.45-.13,3.54-.2,7,4.31,8.23H307.5V51.21c-1,1.29-1.6,2.15-2.3,2.91-3.48,3.83-7.83,4.75-12.67,3.42-4.44-1.23-6.74-4.51-7-8.91-.36-5.1-.27-10.23-.36-15.35,0-2,0-4,0-6C285.11,22.64,285,22.43,280.17,20.55Z"/><path d="M216.84,41.49c-.25,7.49-5.34,14.21-11.9,16-7.36,2-14.91-.67-18.63-7.33-4.92-8.8-4.95-17.92.24-26.63,4.08-6.85,12.18-9.5,19.93-7.09,6.87,2.14,11,8.41,10.82,16.84H193c-.8,6.22,2.54,12.54,7.66,14.88C206.14,50.7,209.83,49.22,216.84,41.49ZM207.49,31.2c-.61-3.36-.81-6.51-1.78-9.39-1.49-4.41-6.52-5.13-9.43-1.49-2.51,3.13-3.24,6.86-3.2,10.88Z"/><path d="M282,56.76H265.3v-4c0-8.34-.05-16.68,0-25,0-3.33,0-6.49-4.85-6.68l.38-.59,16.28-4.67v3.87q0,14.73,0,29.48C277.14,54,277.34,54.31,282,56.76Z"/><path d="M103.45,31.13c-.64,4.94-1.33,11.34-2.36,17.68-.32,2-.7,4.93-3.19,4.87-1.06,0-2.55-3-3-4.84a89,89,0,0,1-.05-38.58,7.49,7.49,0,0,1,.92-2.55A19.39,19.39,0,0,1,98,5.25c.75.79,1.89,1.47,2.19,2.41a46.64,46.64,0,0,1,2,8.39C102.78,20.54,103,25.09,103.45,31.13Z"/><path d="M270.92.46a6.31,6.31,0,0,1,6.45,6.41,6.38,6.38,0,0,1-6.62,6.51A6.52,6.52,0,0,1,264.24,7,6.48,6.48,0,0,1,270.92.46Z"/></g></g></svg>