<svg xmlns="http://www.w3.org/2000/svg" viewBox="0 0 164.74 61.19"><defs><style>.cls-1{fill:#121212;}</style></defs><g id="Layer_2" data-name="Layer 2"><g id="Layer_1-2" data-name="Layer 1"><polygon class="cls-1" points="0 43.61 19.95 43.61 19.95 0 36.22 0 60.14 36.12 60.14 18.71 76.41 18.71 76.41 60.86 53.96 60.86 36.22 33.85 36.22 61.02 0.1 61.02 0 43.61"/><polygon class="cls-1" points="145.64 14.36 145.3 0.29 60.35 0.29 60.69 14.36 80.67 14.36 80.67 39.17 94.75 39.02 94.75 14.36 145.64 14.36"/><path class="cls-1" d="M128.84,61.19h35.9V44.13h-19.4V19.39l-45.7.15V44.13H79.78l.34,17.06H116V51.55h12.84v9.64Zm-12.7-28.38,12.68,0v4.28l-12.68,0Z"/></g></g></svg>