<svg xmlns="http://www.w3.org/2000/svg" viewBox="0 0 392.14 51.2"><defs><style>.cls-1{fill:#121212;}</style></defs><g id="Layer_2" data-name="Layer 2"><g id="Layer_1-2" data-name="Layer 1"><path class="cls-1" d="M173.06,51.12c2.39-5.76,8.91-10.23,14.65-10.23,10.48,0,21-.06,31.44,0,2,0,2.6-.58,2.4-2.47-.29-2.65,1.13-6.11-.57-7.77s-5-.42-7.58-.43c-11.71,0-23.42-.08-35.13,0-2.09,0-2.55-.59-2.52-2.58.12-8.42.09-16.84,0-25.25,0-1.58.2-2.27,2.06-2.27q25.8.11,51.59,0c2.42,0,2.19.88,1.28,2.34-2.89,4.61-6.68,7.73-12.5,7.69-10.07-.06-20.14,0-30.21-.06-2,0-2.6.59-2.39,2.48.27,2.48-1.08,5.82.57,7.24,1.43,1.23,4.67.42,7.11.42,12,0,23.91,0,35.87,0,1.64,0,2.25.34,2.23,2.13-.09,8.91-.06,17.82,0,26.72,0,1.38-.22,2-1.85,2C210.78,51.1,192,51.12,173.06,51.12Z"/><path class="cls-1" d="M363.16,20.36c8.59,0,17.19.05,25.78,0,1.71,0,2.2.42,2.19,2.16q-.13,13.23,0,26.47c0,1.65-.36,2.36-2.15,2.22a33.19,33.19,0,0,0-5.64,0c-1.79.14-2.16-.58-2.13-2.23.09-5.47,0-10.95.06-16.42,0-1.47-.33-2-1.89-2q-16.2.11-32.41,0c-1.39,0-1.82.42-1.8,1.8.06,5.47,0,10.95.06,16.42,0,1.76-.34,2.55-2.28,2.37a32.19,32.19,0,0,0-5.64,0c-1.82.15-2.15-.63-2.14-2.26q.1-13.23,0-26.46c0-1.77.56-2.16,2.23-2.15,8.59.08,17.19,0,25.78,0Z"/><path class="cls-1" d="M32,.17c10,0,20,0,30,0,1.85,0,2.3.36,1.51,2.18-1.92,4.34-7.24,8.6-12.33,8.2-3.9-.3-7.86,0-11.78-.09-1.9-.06-2.51.48-2.49,2.46.09,11.85,0,23.7.1,35.54,0,2.12-.62,2.67-2.61,2.5-2.35-.21-5.51.75-6.88-.44-1.57-1.38-.49-4.6-.5-7-.06-10-.09-20.1,0-30.15,0-2.18-.44-3-2.8-2.91-4.16.19-8.34.07-12.52.05C6.91,10.43,1.39,6.11.12,1.56-.4-.3.92.19,1.76.18Q16.87.15,32,.17Z"/><path class="cls-1" d="M259.54,25.64c0-7.76,0-15.53,0-23.28,0-1.75.51-2.27,2.21-2.16,2.52.17,5.81-.8,7.37.45s.5,4.75.51,7.24q.09,15.45,0,30.88c0,1.85.49,2.31,2.32,2.3,13.26-.08,26.52,0,39.77-.09,2.28,0,2.36.64,1.59,2.43-2.17,5-6.15,7.72-11.58,7.72-13.1,0-26.19-.07-39.29.07-2.45,0-2.95-.72-2.9-3C259.63,40.67,259.54,33.15,259.54,25.64Z"/><path class="cls-1" d="M117.66,20.22h27c2.71,0,2.91.24,1.58,2.69-2.59,4.76-6.28,7.68-12.11,7.6-10.87-.16-21.74-.05-32.62-.05a13,13,0,0,1-12.43-8.24c-.68-1.61-.41-2,1.38-2,7.61.08,15.21,0,22.81,0Z"/><path class="cls-1" d="M88.59,40.91H119c8.68,0,17.36,0,26,0,2,0,2.24.59,1.41,2.21-2.58,5-6.3,8.14-12.32,8.08-11-.11-21.94,0-32.91,0C95.14,51.13,90.16,47.17,88.59,40.91Z"/><path class="cls-1" d="M88.56.18h56.09c2.59,0,2.8.25,1.6,2.51-2.6,4.89-6.38,7.82-12.29,7.74-10.79-.15-21.59,0-32.38,0C95.22,10.38,90.41,6.72,88.56.18Z"/><path class="cls-1" d="M363.19.21c9,0,18,.06,27,0,2.14,0,2.38.61,1.48,2.33-2.61,5-6.36,8.06-12.36,8-11-.12-22.07,0-33.1,0a13.3,13.3,0,0,1-12-8.59C333.62.14,334.53.2,335.73.2Q349.46.23,363.19.21Z"/></g></g></svg>