<svg xmlns="http://www.w3.org/2000/svg" viewBox="0 0 379.03 78.89"><defs><style>.cls-1{fill:#121212;}</style></defs><g id="Layer_2" data-name="Layer 2"><g id="Layer_1-2" data-name="Layer 1"><path class="cls-1" d="M379,14.25c-1.65.56-.89,2-.95,3-.66,12.55-1.3,25.09-1.8,37.65-.11,2.67-1.06,3.68-3.75,3.29a18.82,18.82,0,0,0-4.31,0c-3,.28-5.34,0-4.26-4.39-3.21,1.28-5.39,3.37-8.25,4.2-16.13,4.7-28.45-7.06-25.38-24.32,2.39-13.47,13-21,24.24-20.25,3.36.21,7.75,1.09,9.85-.58s.67-6.3.67-9.61c0-2.23.38-3.34,3-3.17,3.65.25,7.31.15,11,.19Zm-14.84,15c.44-5.71.35-6-2.53-6.41-10.3-1.6-18.36,5.41-18.1,15.74.15,6.27,2.69,9.49,8.26,10.48,4.26.76,8.6-2.32,10.4-7.61A45,45,0,0,0,364.19,29.26Z"/><path class="cls-1" d="M189.53,53.06c-6.27,5.45-12.77,6.61-19.76,5.32A17,17,0,0,1,156,44.27c-2.9-17.44,7.35-30.06,25.19-30.94a82.38,82.38,0,0,1,20.66,1.42c2,.41,2.61,1.17,2.49,3.07-1,15.39-2,30.78-2.75,46.18-.47,9.23-7,12.83-13.64,14.12-8.37,1.62-16.67.33-25-.73-3.46-.44-2.82-3.35-3.1-5.42-.76-5.57-.55-5.63,4.89-4.64,3.46.63,6.94,1.28,10.44,1.62,8.27.78,12.55-2.69,13.62-10.82C189,56.86,189.18,55.6,189.53,53.06Zm1-25.48c1.49-3.76-1.58-4.45-5-4.74-5.59-.49-10.38,1.25-13.67,5.83s-3.59,9.84-1.9,15.16a7.16,7.16,0,0,0,3.22,3.76c5.45,3.42,12.13,1.17,14.75-5.11C189.86,38,190,33.18,190.55,27.58Z"/><path class="cls-1" d="M28.87,44.84C33.62,35.11,38.05,26.05,42.46,17c2.32-4.78,4.72-9.52,6.87-14.38C50.12.82,51,0,53.05,0,57,.2,60.9.09,65.64.09c-3.24,6.45-6.2,12.39-9.21,18.3-6.35,12.47-12.79,24.9-19,37.43a3.54,3.54,0,0,1-3.87,2.34c-3.53-.12-7.08-.15-10.6,0-2.28.11-3.44-.53-4.25-2.84Q9.86,29.82.68,4.42C-.37,1.48-.71.06,3.48,0c10.94-.09,10.83-.28,14.1,10.14C21.14,21.5,24.93,32.77,28.87,44.84Z"/><path class="cls-1" d="M121,14.31c-.16,1.4-.28,2.52-.49,4.38,6.89-6.35,14.65-6.18,22.54-4.73,6.4,1.18,9.81,5.29,9.75,11.63-.09,9.86-.43,19.71-.54,29.57,0,2.33-.77,3.32-3.2,3a30.12,30.12,0,0,0-3.92,0c-7,0-6.86,0-6.41-7.13q.57-8.93.54-17.89c0-5.64-1.58-7.55-6.41-8.73-3.51-.87-8.33,1.27-10.41,4.64-1.9,3.08-2.36,6.59-2.65,10.05-.46,5.42-.79,10.87-.83,16.32,0,2.49-.72,3.09-3.14,2.83a71.37,71.37,0,0,0-9-.23c-1.8,0-2.19-.65-2-2.31,1.37-12.9,2.11-25.85,2.37-38.82,0-2,.8-2.67,2.81-2.59C113.53,14.42,117.06,14.31,121,14.31Z"/><path class="cls-1" d="M238.29,54.45c-7.36,5.08-14.71,5.1-22.14,3.38-5.84-1.36-8.62-5.28-8.65-11.29-.06-9.47.4-18.91.88-28.36.16-3.22,1.34-4.39,4.47-3.89a20.56,20.56,0,0,0,3.14,0c6.19,0,6.18,0,5.75,6.33-.4,5.82-.85,11.63-1.16,17.45-.28,5.46,1.71,8.49,6,9.52a9.76,9.76,0,0,0,11.35-6.1,30.61,30.61,0,0,0,1.77-9.12c.43-4.9.63-9.82.92-14.74a2.79,2.79,0,0,1,0-.77c2.24-5.22,6.77-1.62,10.15-2.47,2.17-.56,3.15.78,3,3.22-.77,12.54-1.48,25.09-2,37.65-.1,2.56-1,3-3.21,2.88a43.74,43.74,0,0,0-6.27,0C239.9,58.34,237.89,58.15,238.29,54.45Z"/><path class="cls-1" d="M260.65,24.44c-.84-8,.28-9.27,7.89-10.33a82.61,82.61,0,0,1,17.21-.69c8.65.63,12.64,4.67,12.39,13.1-.29,9.85-.93,19.69-1.34,29.54-.06,1.45-.44,2.13-2,2.09-3.53-.09-7.85,1.19-10.4-.38-3.09-1.91.07-6.23-.25-9.53-.26-2.68.32-5.43.42-8.15,0-1.21-.14-2.44-2-1.87-4.11,1.27-8.34,2.2-12.22,4.13-1.86.93-3.25,2.31-2.91,4.6.33,2.14,2.09,2.78,3.9,3.33,2.5.76,4.95.09,7.37-.36,1.78-.34,2.29.11,2.18,1.92-.33,5.09-2,6.91-7.18,7a68.85,68.85,0,0,1-7.46-.22c-6.93-.57-10.54-3.91-11.9-10.81-1-5.05,1.95-10,7.51-12.79,4.36-2.17,9.12-3.14,13.76-4.46a29.76,29.76,0,0,0,6.58-2.44c1.16-.66,2.43-1.41,2.29-2.88a3.73,3.73,0,0,0-3-3.19c-4.05-1.06-8.07-.42-12.06.37C266.46,23.05,263.57,23.77,260.65,24.44Z"/><path class="cls-1" d="M83.79,13.2c2.72.13,6.13,0,9.45,1,5.55,1.64,8.43,5.14,8.25,10.77-.32,10.37-.89,20.73-1.29,31.09-.06,1.4-.34,2.27-2,2.1a6.77,6.77,0,0,0-.78,0c-3.4,0-7.71,1.19-10-.42-2.6-1.85,0-6.15-.08-9.4,0-2.72.21-5.44.34-8.16.08-1.67-.43-2.47-2.29-1.85-3.83,1.29-7.82,2.09-11.48,3.87-2,1-3.72,2.31-3.37,4.69s2.52,3.09,4.63,3.58c2.26.52,4.41-.26,6.61-.46.81-.07,1.79-.84,2.37.44,1,2.28-2.12,8-4.65,8.28a43.19,43.19,0,0,1-11.36-.19c-6.17-.95-9.47-4.33-10.56-10.37-.93-5.19,1.63-10,6.85-12.81C69,32.94,74.09,32,79,30.55a55.28,55.28,0,0,0,6.22-2.31c1.33-.57,2.7-1.42,2.46-3.13s-1.57-2.62-3.18-3.06c-3.78-1-7.55-.3-11.29.26-1.42.21-2.8,1-4.19.93-1.75,0-4.15,2.59-5.15-.22-1.37-3.8.55-7.29,3.74-8.07A71.13,71.13,0,0,1,83.79,13.2Z"/><path class="cls-1" d="M308.61,58.13c-6.67,0-6.69,0-6.44-6.65.42-11.52.91-23,1.28-34.56.06-1.84.3-2.86,2.56-2.66,2.72.24,6.26-1,8.06.33,3.45,2.51,5.4.31,8-.76,2.46-1,5.16-.38,7.76-.43,1.22,0,1.53.67,1.59,1.7.17,2.84.37,5.68.56,8.52.11,1.57-.73,1.55-2,1.36-8.67-1.3-13.26,2.37-13.77,11.16-.34,5.82-.71,11.66-.53,17.48.13,3.77-1,5.21-4.77,4.53A13.16,13.16,0,0,0,308.61,58.13Z"/></g></g></svg>