<svg xmlns="http://www.w3.org/2000/svg" viewBox="0 0 78.87 14.25"><defs><style>.cls-1{fill:#2dd7a2;}.cls-2{fill:#00a5ff;}.cls-3{isolation:isolate;}</style></defs><g id="Layer_2" data-name="Layer 2"><g id="Layer_1-2" data-name="Layer 1"><g id="Layer_2-2" data-name="Layer 2"><g id="Layer_1-2-2" data-name="Layer 1-2"><circle class="cls-1" cx="4.44" cy="9.37" r="4.44"/><circle class="cls-1" cx="10.69" cy="3.05" r="3.05"/><circle class="cls-2" cx="14.6" cy="8.31" r="2.33"/><g class="cls-3"><path class="cls-2" d="M28,3.48v8.34H26.08V8.4H22.29v3.42H20.36V3.48h1.93V6.77h3.79V3.48Z"/><path class="cls-2" d="M36.22,5.41l-2.89,6.8a2.65,2.65,0,0,1-2.66,2,2.85,2.85,0,0,1-1.79-.59l.68-1.32a1.67,1.67,0,0,0,1.05.41c.51,0,.8-.23,1.05-.8l0-.06L28.91,5.41h1.91l1.8,4.35,1.82-4.35Z"/><path class="cls-2" d="M44,8.61a3.11,3.11,0,0,1-3.19,3.31,2.46,2.46,0,0,1-1.93-.78v3H37V5.41h1.77v.74a2.51,2.51,0,0,1,2-.84A3.11,3.11,0,0,1,44,8.61Zm-1.88,0a1.64,1.64,0,1,0-3.27,0,1.64,1.64,0,1,0,3.27,0Z"/><path class="cls-2" d="M51.46,9.14H46.61a1.7,1.7,0,0,0,1.83,1.29,2.2,2.2,0,0,0,1.61-.62l1,1.07a3.37,3.37,0,0,1-2.65,1,3.33,3.33,0,0,1-3.65-3.31,3.26,3.26,0,0,1,3.42-3.3,3.18,3.18,0,0,1,3.33,3.33C51.49,8.78,51.47,9,51.46,9.14ZM46.58,8.05h3.16a1.6,1.6,0,0,0-3.16,0Z"/></g><g class="cls-3"><g class="cls-3"><path class="cls-1" d="M52.88,3.5h1.93v6.77H59v1.57H52.88Z"/></g><g class="cls-3"><path class="cls-1" d="M66.34,5.43l-2.89,6.8a2.66,2.66,0,0,1-2.66,2A2.85,2.85,0,0,1,59,13.66l.68-1.32a1.67,1.67,0,0,0,1,.41c.51,0,.8-.23,1.05-.8l0-.06L59,5.43h1.92l1.8,4.35,1.81-4.35Z"/></g><g class="cls-3"><path class="cls-1" d="M69.62,5.57h1.64V7h-1.6v4.84H67.8V7h-1V5.57h1V5.29A2.24,2.24,0,0,1,70.28,2.9a2.6,2.6,0,0,1,1.42.35l-.49,1.34a1.3,1.3,0,0,0-.75-.22c-.55,0-.84.3-.84.93Z"/></g><g class="cls-3"><path class="cls-1" d="M78.83,9.16H74a1.71,1.71,0,0,0,1.84,1.29,2.2,2.2,0,0,0,1.61-.62l1,1.07a3.37,3.37,0,0,1-2.65,1,3.33,3.33,0,0,1-3.66-3.31,3.27,3.27,0,0,1,3.42-3.3,3.18,3.18,0,0,1,3.34,3.33C78.87,8.8,78.84,9,78.83,9.16ZM74,8.07h3.16a1.6,1.6,0,0,0-3.16,0Z"/></g></g></g></g></g></g></svg>